<?xml version="1.0" encoding="UTF-8"?>
<svg width="1200" height="800" viewBox="0 0 1200 800" xmlns="http://www.w3.org/2000/svg">
  <defs>
    <style>
      .title { font-family: 'Arial', sans-serif; font-size: 24px; font-weight: bold; fill: #1f2937; }
      .subtitle { font-family: 'Arial', sans-serif; font-size: 16px; font-weight: bold; fill: #374151; }
      .label { font-family: 'Arial', sans-serif; font-size: 12px; fill: #6b7280; }
      .service-box { fill: #3b82f6; stroke: #1d4ed8; stroke-width: 2; rx: 8; }
      .service-text { font-family: 'Arial', sans-serif; font-size: 14px; font-weight: bold; fill: white; }
      .database-box { fill: #10b981; stroke: #059669; stroke-width: 2; rx: 8; }
      .database-text { font-family: 'Arial', sans-serif; font-size: 14px; font-weight: bold; fill: white; }
      .frontend-box { fill: #f59e0b; stroke: #d97706; stroke-width: 2; rx: 8; }
      .frontend-text { font-family: 'Arial', sans-serif; font-size: 14px; font-weight: bold; fill: white; }
      .arrow { stroke: #6b7280; stroke-width: 2; fill: none; marker-end: url(#arrowhead); }
      .arrow-label { font-family: 'Arial', sans-serif; font-size: 10px; fill: #6b7280; }
      .cluster { fill: #f3f4f6; stroke: #d1d5db; stroke-width: 1; rx: 12; }
      .cluster-title { font-family: 'Arial', sans-serif; font-size: 16px; font-weight: bold; fill: #374151; }
    </style>
    <marker id="arrowhead" markerWidth="10" markerHeight="7" refX="9" refY="3.5" orient="auto">
      <polygon points="0 0, 10 3.5, 0 7" fill="#6b7280" />
    </marker>
  </defs>
  
  <!-- Background -->
  <rect width="1200" height="800" fill="#ffffff"/>
  
  <!-- Title -->
  <text x="600" y="30" text-anchor="middle" class="title">reLink - Микросервисная архитектура</text>
  
  <!-- Frontend Layer -->
  <g>
    <rect x="50" y="60" width="1100" height="120" class="cluster"/>
    <text x="600" y="80" text-anchor="middle" class="cluster-title">Frontend Layer (React + TypeScript)</text>
    
    <rect x="80" y="100" width="150" height="60" class="frontend-box"/>
    <text x="155" y="135" text-anchor="middle" class="frontend-text">Dashboard</text>
    
    <rect x="250" y="100" width="150" height="60" class="frontend-box"/>
    <text x="325" y="135" text-anchor="middle" class="frontend-text">LLM Models</text>
    
    <rect x="420" y="100" width="150" height="60" class="frontend-box"/>
    <text x="495" y="135" text-anchor="middle" class="frontend-text">A/B Testing</text>
    
    <rect x="590" y="100" width="150" height="60" class="frontend-box"/>
    <text x="665" y="135" text-anchor="middle" class="frontend-text">Benchmarks</text>
    
    <rect x="760" y="100" width="150" height="60" class="frontend-box"/>
    <text x="835" y="135" text-anchor="middle" class="frontend-text">Monitoring</text>
    
    <rect x="930" y="100" width="150" height="60" class="frontend-box"/>
    <text x="1005" y="135" text-anchor="middle" class="frontend-text">Global Search</text>
  </g>
  
  <!-- API Gateway Layer -->
  <g>
    <rect x="50" y="200" width="1100" height="80" class="cluster"/>
    <text x="600" y="220" text-anchor="middle" class="cluster-title">API Gateway & Load Balancer</text>
    
    <rect x="400" y="240" width="400" height="30" class="service-box"/>
    <text x="600" y="260" text-anchor="middle" class="service-text">Nginx / Traefik</text>
  </g>
  
  <!-- Microservices Layer -->
  <g>
    <rect x="50" y="300" width="1100" height="200" class="cluster"/>
    <text x="600" y="320" text-anchor="middle" class="cluster-title">Microservices Layer</text>
    
    <!-- Main Backend -->
    <rect x="80" y="340" width="180" height="80" class="service-box"/>
    <text x="170" y="365" text-anchor="middle" class="service-text">Main Backend</text>
    <text x="170" y="385" text-anchor="middle" class="label">FastAPI + SQLAlchemy</text>
    <text x="170" y="400" text-anchor="middle" class="label">SEO Analysis</text>
    
    <!-- LLM Tuning Service -->
    <rect x="280" y="340" width="180" height="80" class="service-box"/>
    <text x="370" y="365" text-anchor="middle" class="service-text">LLM Tuning</text>
    <text x="370" y="385" text-anchor="middle" class="label">FastAPI + Ollama</text>
    <text x="370" y="400" text-anchor="middle" class="label">Model Management</text>
    
    <!-- Benchmark Service -->
    <rect x="480" y="340" width="180" height="80" class="service-box"/>
    <text x="570" y="365" text-anchor="middle" class="service-text">Benchmark</text>
    <text x="570" y="385" text-anchor="middle" class="label">Performance Testing</text>
    <text x="570" y="400" text-anchor="middle" class="label">Metrics Collection</text>
    
    <!-- Monitoring Service -->
    <rect x="680" y="340" width="180" height="80" class="service-box"/>
    <text x="770" y="365" text-anchor="middle" class="service-text">Monitoring</text>
    <text x="770" y="385" text-anchor="middle" class="label">Prometheus + Grafana</text>
    <text x="770" y="400" text-anchor="middle" class="label">Health Checks</text>
    
    <!-- Documentation Service -->
    <rect x="880" y="340" width="180" height="80" class="service-box"/>
    <text x="970" y="365" text-anchor="middle" class="service-text">Documentation</text>
    <text x="970" y="385" text-anchor="middle" class="label">API Docs + Guides</text>
    <text x="970" y="400" text-anchor="middle" class="label">Integration Help</text>
  </g>
  
  <!-- Data Layer -->
  <g>
    <rect x="50" y="520" width="1100" height="120" class="cluster"/>
    <text x="600" y="540" text-anchor="middle" class="cluster-title">Data Layer</text>
    
    <rect x="80" y="560" width="150" height="60" class="database-box"/>
    <text x="155" y="585" text-anchor="middle" class="database-text">PostgreSQL</text>
    <text x="155" y="600" text-anchor="middle" class="label">Main Database</text>
    
    <rect x="250" y="560" width="150" height="60" class="database-box"/>
    <text x="325" y="585" text-anchor="middle" class="database-text">Redis</text>
    <text x="325" y="600" text-anchor="middle" class="label">Cache & Sessions</text>
    
    <rect x="420" y="560" width="150" height="60" class="database-box"/>
    <text x="495" y="585" text-anchor="middle" class="database-text">ChromaDB</text>
    <text x="495" y="600" text-anchor="middle" class="label">Vector Database</text>
    
    <rect x="590" y="560" width="150" height="60" class="database-box"/>
    <text x="665" y="585" text-anchor="middle" class="database-text">Ollama Models</text>
    <text x="665" y="600" text-anchor="middle" class="label">Local LLM Storage</text>
    
    <rect x="760" y="560" width="150" height="60" class="database-box"/>
    <text x="835" y="585" text-anchor="middle" class="database-text">Prometheus</text>
    <text x="835" y="600" text-anchor="middle" class="label">Metrics Storage</text>
    
    <rect x="930" y="560" width="150" height="60" class="database-box"/>
    <text x="1005" y="585" text-anchor="middle" class="database-text">Grafana</text>
    <text x="1005" y="600" text-anchor="middle" class="label">Visualization</text>
  </g>
  
  <!-- Infrastructure Layer -->
  <g>
    <rect x="50" y="660" width="1100" height="120" class="cluster"/>
    <text x="600" y="680" text-anchor="middle" class="cluster-title">Infrastructure Layer</text>
    
    <rect x="80" y="700" width="150" height="60" class="service-box"/>
    <text x="155" y="725" text-anchor="middle" class="service-text">Docker</text>
    <text x="155" y="740" text-anchor="middle" class="label">Containerization</text>
    
    <rect x="250" y="700" width="150" height="60" class="service-box"/>
    <text x="325" y="725" text-anchor="middle" class="service-text">Kubernetes</text>
    <text x="325" y="740" text-anchor="middle" class="label">Orchestration</text>
    
    <rect x="420" y="700" width="150" height="60" class="service-box"/>
    <text x="495" y="725" text-anchor="middle" class="service-text">CI/CD</text>
    <text x="495" y="740" text-anchor="middle" class="label">GitHub Actions</text>
    
    <rect x="590" y="700" width="150" height="60" class="service-box"/>
    <text x="665" y="725" text-anchor="middle" class="service-text">Monitoring</text>
    <text x="665" y="740" text-anchor="middle" class="label">Health & Alerts</text>
    
    <rect x="760" y="700" width="150" height="60" class="service-box"/>
    <text x="835" y="725" text-anchor="middle" class="service-text">Security</text>
    <text x="835" y="740" text-anchor="middle" class="label">Auth & SSL</text>
    
    <rect x="930" y="700" width="150" height="60" class="service-box"/>
    <text x="1005" y="725" text-anchor="middle" class="service-text">Backup</text>
    <text x="1005" y="740" text-anchor="middle" class="label">Data Protection</text>
  </g>
  
  <!-- Arrows showing data flow -->
  <g>
    <!-- Frontend to API Gateway -->
    <line x1="600" y1="180" x2="600" y2="240" class="arrow"/>
    <text x="620" y="210" class="arrow-label">HTTP/HTTPS</text>
    
    <!-- API Gateway to Services -->
    <line x1="400" y1="270" x2="170" y2="340" class="arrow"/>
    <line x1="500" y1="270" x2="370" y2="340" class="arrow"/>
    <line x1="600" y1="270" x2="570" y2="340" class="arrow"/>
    <line x1="700" y1="270" x2="770" y2="340" class="arrow"/>
    <line x1="800" y1="270" x2="970" y2="340" class="arrow"/>
    
    <!-- Services to Databases -->
    <line x1="170" y1="420" x2="155" y2="560" class="arrow"/>
    <line x1="370" y1="420" x2="665" y2="560" class="arrow"/>
    <line x1="570" y1="420" x2="835" y2="560" class="arrow"/>
    <line x1="770" y1="420" x2="1005" y2="560" class="arrow"/>
    
    <!-- Cross-service communication -->
    <line x1="260" y1="380" x2="480" y2="380" class="arrow"/>
    <line x1="460" y1="380" x2="680" y2="380" class="arrow"/>
    <line x1="660" y1="380" x2="880" y2="380" class="arrow"/>
  </g>
</svg> 